<svg xmlns="http://www.w3.org/2000/svg" viewBox="0 0 42.54 43"><defs><style>.cls-1{fill:#454545;}</style></defs><title>close</title><g id="图层_2" data-name="图层 2"><g id="图层_1-2" data-name="图层 1"><path class="cls-1" d="M2,43A1.53,1.53,0,0,1,.9,42.56a1.51,1.51,0,0,1,0-2.12L40,1.37a1.49,1.49,0,0,1,2.12,0,1.51,1.51,0,0,1,0,2.12L3,42.56A1.49,1.49,0,0,1,2,43Z"/><path class="cls-1" d="M41,42.54A1.49,1.49,0,0,1,40,42.1L.44,2.56A1.5,1.5,0,0,1,2.56.44L42.1,40a1.51,1.51,0,0,1,0,2.12A1.53,1.53,0,0,1,41,42.54Z"/></g></g></svg>