<svg xmlns="http://www.w3.org/2000/svg" viewBox="0 0 46.3 53"><defs><style>.cls-1{fill:#0a498d;}</style></defs><title>high</title><g id="图层_2" data-name="图层 2"><g id="图层_1-2" data-name="图层 1"><path class="cls-1" d="M23.15,53a1.53,1.53,0,0,1-.75-.2L.75,40.3A1.51,1.51,0,0,1,0,39V14a1.51,1.51,0,0,1,.75-1.3L22.4.2a1.49,1.49,0,0,1,1.5,0L38.35,8.54a1.51,1.51,0,0,1,.55,2.05,1.49,1.49,0,0,1-2,.55L23.15,3.23,3,14.87V38.13L23.15,49.77,43.3,38.13V20.19a1.5,1.5,0,1,1,3,0V39a1.49,1.49,0,0,1-.75,1.3L23.9,52.8A1.53,1.53,0,0,1,23.15,53Z"/><path class="cls-1" d="M30.68,39H27.32V27.3H19V39H15.62V14H19V24.53h8.34V14h3.36Z"/></g></g></svg>