<svg xmlns="http://www.w3.org/2000/svg" viewBox="0 0 46.3 53"><defs><style>.cls-1{fill:#d2dde6;}</style></defs><title>low</title><g id="图层_2" data-name="图层 2"><g id="图层_1-2" data-name="图层 1"><path class="cls-1" d="M23.15,53a1.53,1.53,0,0,1-.75-.2L.75,40.3A1.51,1.51,0,0,1,0,39V14a1.51,1.51,0,0,1,.75-1.3L22.4.2a1.49,1.49,0,0,1,1.5,0L38.35,8.54a1.5,1.5,0,1,1-1.5,2.6L23.15,3.23,3,14.87V38.13L23.15,49.77,43.3,38.13V20.19a1.5,1.5,0,1,1,3,0V39a1.49,1.49,0,0,1-.75,1.3L23.9,52.8A1.53,1.53,0,0,1,23.15,53Z"/><path class="cls-1" d="M30.75,39H15.55V14h3.36V36.22H30.75Z"/></g></g></svg>