<svg xmlns="http://www.w3.org/2000/svg" viewBox="0 0 37.3 40"><defs><style>.cls-1{fill:#454545;}</style></defs><title>move</title><g id="图层_2" data-name="图层 2"><g id="图层_1-2" data-name="图层 1"><path class="cls-1" d="M18.85,20.48A1.64,1.64,0,0,1,17.7,20L.48,2.78A1.63,1.63,0,0,1,2.78.48L18.85,16.55,34.52.87a1.64,1.64,0,0,1,2.3,0,1.62,1.62,0,0,1,0,2.3L20,20A1.66,1.66,0,0,1,18.85,20.48Z"/><path class="cls-1" d="M18.85,40a1.6,1.6,0,0,1-1.15-.48L.48,22.3a1.62,1.62,0,0,1,0-2.3,1.64,1.64,0,0,1,2.3,0L18.85,36.07,34.52,20.4a1.63,1.63,0,1,1,2.3,2.3L20,39.52A1.62,1.62,0,0,1,18.85,40Z"/></g></g></svg>