<svg xmlns="http://www.w3.org/2000/svg" viewBox="0 0 48.05 44.28"><defs><style>.cls-1{fill:#f5f5f5;}</style></defs><title>search_w</title><g id="图层_2" data-name="图层 2"><g id="图层_1-2" data-name="图层 1"><path class="cls-1" d="M21.5,43A21.5,21.5,0,1,1,43,21.5,21.53,21.53,0,0,1,21.5,43Zm0-40A18.5,18.5,0,1,0,40,21.5,18.52,18.52,0,0,0,21.5,3Z"/><path class="cls-1" d="M46.55,44.28a1.47,1.47,0,0,1-1.06-.44l-9.1-9.1a1.49,1.49,0,0,1,0-2.12,1.51,1.51,0,0,1,2.12,0l9.1,9.1a1.49,1.49,0,0,1,0,2.12A1.47,1.47,0,0,1,46.55,44.28Z"/></g></g></svg>