<svg xmlns="http://www.w3.org/2000/svg" viewBox="0 0 40 40"><defs><style>.cls-1{fill:#454545;}.cls-2{fill:#f5f5f5;}</style></defs><title>sidebar</title><g id="图层_2" data-name="图层 2"><g id="图层_1-2" data-name="图层 1"><circle class="cls-1" cx="20" cy="20" r="20"/><path class="cls-2" d="M32.07,12.46H16.51a.84.84,0,0,1,0-1.68H32.07a.84.84,0,1,1,0,1.68Z"/><path class="cls-2" d="M10.82,12.46H7.93a.84.84,0,0,1,0-1.68h2.89a.84.84,0,0,1,0,1.68Z"/><path class="cls-2" d="M32.07,20.84H16.51a.84.84,0,0,1,0-1.68H32.07a.84.84,0,1,1,0,1.68Z"/><path class="cls-2" d="M10.82,20.84H7.93a.84.84,0,0,1,0-1.68h2.89a.84.84,0,0,1,0,1.68Z"/><path class="cls-2" d="M32.07,29.22H16.51a.84.84,0,0,1,0-1.68H32.07a.84.84,0,1,1,0,1.68Z"/><path class="cls-2" d="M10.82,29.22H7.93a.84.84,0,1,1,0-1.68h2.89a.84.84,0,0,1,0,1.68Z"/></g></g></svg>