<svg xmlns="http://www.w3.org/2000/svg" viewBox="0 0 238.7 73.12"><defs><style>.cls-1{fill:#000101;}.cls-2{fill:#0a75bc;}</style></defs><title>logo_black</title><g id="图层_2" data-name="图层 2"><g id="Layer_1" data-name="Layer 1"><path class="cls-1" d="M81.21,27.13a9.87,9.87,0,0,0-3.95.77,8.27,8.27,0,0,0-3,2.2,9.83,9.83,0,0,0-1.89,3.49,15.41,15.41,0,0,0-.65,4.63,16.36,16.36,0,0,0,.6,4.59,10,10,0,0,0,1.77,3.51A7.78,7.78,0,0,0,77,48.53a10.26,10.26,0,0,0,4.16.77A17.75,17.75,0,0,0,84.6,49a29.9,29.9,0,0,0,3.17-.78v3a16.69,16.69,0,0,1-3.15.85,25.7,25.7,0,0,1-3.93.26,14.07,14.07,0,0,1-5.53-1,10.4,10.4,0,0,1-3.94-2.84A12.42,12.42,0,0,1,68.85,44a20,20,0,0,1-.79-5.84,17.92,17.92,0,0,1,.87-5.72A12.23,12.23,0,0,1,71.46,28a11.63,11.63,0,0,1,4.14-2.88,14.27,14.27,0,0,1,5.65-1,19.24,19.24,0,0,1,4.07.42,15.49,15.49,0,0,1,3.52,1.19l-1.39,2.93a22.31,22.31,0,0,0-2.82-1A11.94,11.94,0,0,0,81.21,27.13Z"/><path class="cls-1" d="M90.06,31.32h3.63l4.45,11.74c.39,1.06.74,2,1,3a20,20,0,0,1,.68,2.66H100c.17-.64.41-1.47.75-2.5s.68-2.08,1-3.15L106,31.32h3.64l-8.88,23.49a15.86,15.86,0,0,1-1.22,2.62,9.56,9.56,0,0,1-1.58,2,6.23,6.23,0,0,1-2,1.3,7.31,7.31,0,0,1-2.66.45,11.05,11.05,0,0,1-1.62-.11c-.46-.06-.85-.14-1.18-.21V58.19l1,.15a10.06,10.06,0,0,0,1.24.08,4.09,4.09,0,0,0,2.86-1,7,7,0,0,0,1.73-2.67L98.37,52Z"/><path class="cls-1" d="M122.68,31a7.83,7.83,0,0,1,6.19,2.68c1.55,1.79,2.33,4.44,2.33,8a15.91,15.91,0,0,1-.62,4.65,9.91,9.91,0,0,1-1.73,3.35,6.91,6.91,0,0,1-2.69,2,8.74,8.74,0,0,1-3.48.67,8,8,0,0,1-4-.88,7.5,7.5,0,0,1-2.42-2.11H116c-.12.44-.24.87-.34,1.31s-.23.86-.35,1.3h-2.43V22.71h3.39v7.11c0,.87,0,1.69-.06,2.45s-.08,1.36-.13,1.79h.19a7,7,0,0,1,2.42-2.19A7.9,7.9,0,0,1,122.68,31Zm-.56,2.8a7.44,7.44,0,0,0-2.78.46,4,4,0,0,0-1.78,1.43,6.23,6.23,0,0,0-1,2.43,17.32,17.32,0,0,0-.29,3.42v.15a17.11,17.11,0,0,0,.29,3.4,6.34,6.34,0,0,0,1,2.44,4.23,4.23,0,0,0,1.81,1.5,6.75,6.75,0,0,0,2.83.52,4.64,4.64,0,0,0,4.13-2,10.58,10.58,0,0,0,1.37-5.89Q127.7,33.78,122.12,33.78Z"/><path class="cls-1" d="M145.37,52.33a11.55,11.55,0,0,1-4-.67,8.28,8.28,0,0,1-3.13-2,9,9,0,0,1-2-3.31,13,13,0,0,1-.73-4.56,15,15,0,0,1,.65-4.56,9.64,9.64,0,0,1,1.84-3.4,8.15,8.15,0,0,1,2.89-2.13,9.73,9.73,0,0,1,7.27-.09,7.55,7.55,0,0,1,2.68,1.88,8.56,8.56,0,0,1,1.7,2.93,11.57,11.57,0,0,1,.6,3.83v2H138.94a7.84,7.84,0,0,0,1.77,5.33,6.21,6.21,0,0,0,4.81,1.83,15.13,15.13,0,0,0,3.48-.36A20.64,20.64,0,0,0,152.13,48v3a14.6,14.6,0,0,1-3.1,1A18.51,18.51,0,0,1,145.37,52.33Zm-.85-18.62a4.89,4.89,0,0,0-3.83,1.56A7.33,7.33,0,0,0,139,39.61h10.51a7.32,7.32,0,0,0-1.23-4.29A4.39,4.39,0,0,0,144.52,33.71Z"/><path class="cls-1" d="M167.91,31c.39,0,.8,0,1.23.05s.83.1,1.2.17l-.42,3.12a10,10,0,0,0-1.1-.19,9.24,9.24,0,0,0-1.13-.07,5.45,5.45,0,0,0-2.29.49,6,6,0,0,0-1.92,1.4,7,7,0,0,0-1.32,2.19,8,8,0,0,0-.48,2.83V52h-3.39V31.32h2.78l.38,3.78h.15a12.18,12.18,0,0,1,1.14-1.6,7.73,7.73,0,0,1,1.42-1.32,6.35,6.35,0,0,1,1.73-.91A6.15,6.15,0,0,1,167.91,31Z"/><path d="M174.38,24.48h8.55q5.87,0,8.49,1.68a5.79,5.79,0,0,1,2.63,5.27,6.85,6.85,0,0,1-1.1,4,4.55,4.55,0,0,1-3.13,2v.19a6.08,6.08,0,0,1,3.74,2.15A7,7,0,0,1,194.75,44a7,7,0,0,1-2.7,5.87A11.8,11.8,0,0,1,184.66,52H174.38Zm5.82,10.88h3.39a5.73,5.73,0,0,0,3.51-.79,2.85,2.85,0,0,0,1-2.37,2.44,2.44,0,0,0-1.15-2.28,7.64,7.64,0,0,0-3.66-.67H180.2Zm0,4.62v7.16H184a5.17,5.17,0,0,0,3.66-1,3.65,3.65,0,0,0,1-2.72,3.16,3.16,0,0,0-1.06-2.48c-.7-.62-2-.94-3.83-.94Z"/><path d="M214.67,52l-.78-2.68h-.3a5.77,5.77,0,0,1-2.75,2.34,9.69,9.69,0,0,1-3.71.72,7.86,7.86,0,0,1-5.42-1.82c-1.36-1.22-2-3.17-2-5.87V31h5.73V43.22a5.9,5.9,0,0,0,.81,3.41,3,3,0,0,0,2.57,1.13A3.7,3.7,0,0,0,212.36,46a11,11,0,0,0,1-5.14V31h5.73V52Z"/><path d="M236.69,35.25h-5V52H226V35.25h-3.16V32.49L226,31V29.4c0-2.39.58-4.14,1.76-5.24s3.07-1.65,5.66-1.65a14.69,14.69,0,0,1,5.28.88l-1.47,4.21a10.72,10.72,0,0,0-3.19-.54,2.06,2.06,0,0,0-1.78.73,3.08,3.08,0,0,0-.53,1.84V31h5Z"/><path class="cls-2" d="M46.88,7.39H0L.51,44.58S3.06,65.48,27,73.12C51,65.48,53.5,44.58,53.5,44.58L54,7.39ZM46.42,42S44.36,60.44,27,66C9.65,60.44,8,42,8,42L7.64,15H46.79Z"/><path class="cls-2" d="M27.77,28l0,0-.95,1.5-.05.07h0c-1.84,2.93-5.64,9.14-6.3,11.56-2-3.5-7-9.63-11.09-9.92-2.34.87-1.17,2.62-1.17,2.62s7.3,7.3,10.22,16.94c2.92,3.79,5.84,0,5.84,0s4.59-10.45,7.29-14.6C33.88,32.61,54,1.76,68.53,0,68.53,0,45.71,1.2,27.77,28Z"/></g></g></svg>